<?xml version="1.0" encoding="UTF-8"?>
<!DOCTYPE svg PUBLIC "-//W3C//DTD SVG 1.1//EN" "http://www.w3.org/Graphics/SVG/1.1/DTD/svg11.dtd">
<svg xmlns="http://www.w3.org/2000/svg" version="1.1" width="836px" height="298px" style="shape-rendering:geometricPrecision; text-rendering:geometricPrecision; image-rendering:optimizeQuality; fill-rule:evenodd; clip-rule:evenodd" xmlns:xlink="http://www.w3.org/1999/xlink">
<g><path style="opacity:1" fill="#0d0d0d" d="M 607.5,0.5 C 608.483,4.29841 608.817,8.29841 608.5,12.5C 608.46,17.1925 608.127,21.8592 607.5,26.5C 615.253,26.201 622.92,26.5343 630.5,27.5C 630.5,28.5 630.5,29.5 630.5,30.5C 630.167,30.5 629.833,30.5 629.5,30.5C 621.833,30.5 614.167,30.5 606.5,30.5C 606.169,56.672 606.502,82.672 607.5,108.5C 608.361,113.193 611.195,115.526 616,115.5C 621.523,114.552 627.023,113.552 632.5,112.5C 633.492,112.328 634.158,112.662 634.5,113.5C 627.463,120.521 618.796,123.855 608.5,123.5C 602.755,123.179 597.088,122.346 591.5,121C 586.124,118.96 582.957,115.127 582,109.5C 581.265,83.4892 581.432,57.4892 582.5,31.5C 578.154,31.6657 573.821,31.499 569.5,31C 569.043,30.586 568.709,30.086 568.5,29.5C 573.069,26.6454 577.736,23.9788 582.5,21.5C 584.027,21.573 585.027,20.9063 585.5,19.5C 585.842,18.6618 586.508,18.3284 587.5,18.5C 589.749,17.9202 591.415,16.5869 592.5,14.5C 593.5,12.8333 594.833,11.5 596.5,10.5C 598.833,10.1667 600.167,8.83333 600.5,6.5C 602.193,3.81032 604.527,1.81032 607.5,0.5 Z"/></g>
<g><path style="opacity:0.318" fill="#979797" d="M 607.5,0.5 C 607.5,0.166667 607.5,-0.166667 607.5,-0.5C 608.167,-0.5 608.833,-0.5 609.5,-0.5C 609.818,4.03225 609.485,8.36559 608.5,12.5C 608.817,8.29841 608.483,4.29841 607.5,0.5 Z"/></g>
<g><path style="opacity:0.624" fill="#8a8a8a" d="M 600.5,6.5 C 600.167,8.83333 598.833,10.1667 596.5,10.5C 597.5,8.83333 598.833,7.5 600.5,6.5 Z"/></g>
<g><path style="opacity:0.965" fill="#535353" d="M 592.5,14.5 C 591.415,16.5869 589.749,17.9202 587.5,18.5C 588.585,16.4131 590.251,15.0798 592.5,14.5 Z"/></g>
<g><path style="opacity:0.729" fill="#919191" d="M 585.5,19.5 C 585.027,20.9063 584.027,21.573 582.5,21.5C 582.973,20.0937 583.973,19.427 585.5,19.5 Z"/></g>
<g><path style="opacity:1" fill="#141414" d="M 454.5,29.5 C 455.539,31.5311 457.205,32.8645 459.5,33.5C 462.941,37.0596 464.774,41.393 465,46.5C 464.561,67.4908 464.561,88.4908 465,109.5C 468.528,115.396 473.361,116.73 479.5,113.5C 480.5,113.833 481.167,114.5 481.5,115.5C 479.569,117.804 477.236,119.638 474.5,121C 466.568,123.547 458.568,123.88 450.5,122C 448.68,121.8 447.347,120.966 446.5,119.5C 446.027,118.094 445.027,117.427 443.5,117.5C 443.715,115.821 443.048,114.821 441.5,114.5C 440.928,113.027 440.095,111.693 439,110.5C 426.553,122.57 412.053,126.07 395.5,121C 388.744,117.911 384.577,112.745 383,105.5C 380.423,87.2252 388.256,76.2252 406.5,72.5C 408.027,72.573 409.027,71.9063 409.5,70.5C 412.614,68.6092 415.948,67.2759 419.5,66.5C 421.027,66.573 422.027,65.9063 422.5,64.5C 438.853,58.439 443.519,47.439 436.5,31.5C 422.814,25.9236 413.648,30.257 409,44.5C 403.416,50.5538 397.416,50.8872 391,45.5C 390.192,41.9733 390.359,38.6399 391.5,35.5C 392.5,35.1667 393.167,34.5 393.5,33.5C 393.833,32.5 394.5,31.8333 395.5,31.5C 397.027,31.573 398.027,30.9063 398.5,29.5C 399.391,28.8902 400.391,28.5569 401.5,28.5C 404.152,28.5905 406.485,27.9238 408.5,26.5C 424.13,23.2347 439.464,24.2347 454.5,29.5 Z M 438.5,59.5 C 439.72,73.6848 439.553,88.0181 438,102.5C 433.335,112.217 425.835,116.05 415.5,114C 411.133,111.445 408.633,107.612 408,102.5C 405.472,91.877 407.972,82.7104 415.5,75C 423.578,70.3056 431.244,65.1389 438.5,59.5 Z"/></g>
<g><path style="opacity:1" fill="#121212" d="M 559.5,28.5 C 559.427,30.0269 560.094,31.0269 561.5,31.5C 562.222,31.9175 562.722,32.5842 563,33.5C 565.216,46.285 560.049,51.1184 547.5,48C 546.333,46.8333 545.167,45.6667 544,44.5C 539.628,29.033 533.961,28.6997 527,43.5C 526.055,47.1141 525.388,50.7808 525,54.5C 524.333,75.1667 524.333,95.8333 525,116.5C 528.745,117.297 532.579,117.797 536.5,118C 539.124,118.576 539.791,119.91 538.5,122C 520.804,122.863 503.138,122.53 485.5,121C 485.998,119.842 486.831,119.009 488,118.5C 491.186,117.879 494.352,117.212 497.5,116.5C 498.667,89.1728 498.833,61.8394 498,34.5C 494.769,32.8146 491.269,31.8146 487.5,31.5C 487.5,30.8333 487.5,30.1667 487.5,29.5C 499.401,26.6478 511.401,25.9811 523.5,27.5C 523.335,31.1817 523.501,34.8484 524,38.5C 524.717,37.9558 525.217,37.2891 525.5,36.5C 528.149,31.0265 532.483,27.5265 538.5,26C 543.833,25.3333 549.167,25.3333 554.5,26C 556.452,26.3661 558.118,27.1995 559.5,28.5 Z"/></g>
<g><path style="opacity:0.965" fill="#686868" d="M 408.5,26.5 C 406.485,27.9238 404.152,28.5905 401.5,28.5C 403.515,27.0762 405.848,26.4095 408.5,26.5 Z"/></g>
<g><path style="opacity:0.502" fill="#7b7b7b" d="M 523.5,27.5 C 524.167,30.5 524.833,33.5 525.5,36.5C 525.217,37.2891 524.717,37.9558 524,38.5C 523.501,34.8484 523.335,31.1817 523.5,27.5 Z"/></g>
<g><path style="opacity:0.945" fill="#797979" d="M 630.5,27.5 C 633.167,28.5 633.167,29.5 630.5,30.5C 630.5,29.5 630.5,28.5 630.5,27.5 Z"/></g>
<g><path style="opacity:0.773" fill="#828282" d="M 398.5,29.5 C 398.027,30.9063 397.027,31.573 395.5,31.5C 395.973,30.0937 396.973,29.427 398.5,29.5 Z"/></g>
<g><path style="opacity:0.937" fill="#848484" d="M 454.5,29.5 C 456.754,30.1237 458.421,31.457 459.5,33.5C 457.205,32.8645 455.539,31.5311 454.5,29.5 Z"/></g>
<g><path style="opacity:0.694" fill="#787878" d="M 487.5,29.5 C 487.5,30.1667 487.5,30.8333 487.5,31.5C 483.5,30.8333 483.5,30.1667 487.5,29.5 Z"/></g>
<g><path style="opacity:0.494" fill="#999999" d="M 559.5,28.5 C 560.906,28.9731 561.573,29.9731 561.5,31.5C 560.094,31.0269 559.427,30.0269 559.5,28.5 Z"/></g>
<g><path style="opacity:0.757" fill="#545454" d="M 629.5,30.5 C 622.352,31.4916 615.019,31.825 607.5,31.5C 607.5,57.1667 607.5,82.8333 607.5,108.5C 606.502,82.672 606.169,56.672 606.5,30.5C 614.167,30.5 621.833,30.5 629.5,30.5 Z"/></g>
<g><path style="opacity:0.341" fill="#b2b2b2" d="M 393.5,33.5 C 393.167,34.5 392.5,35.1667 391.5,35.5C 391.5,34.1667 392.167,33.5 393.5,33.5 Z"/></g>
<g><path style="opacity:0.827" fill="#7f7f7f" d="M 422.5,64.5 C 422.027,65.9063 421.027,66.573 419.5,66.5C 419.973,65.0937 420.973,64.427 422.5,64.5 Z"/></g>
<g><path style="opacity:0.737" fill="#929292" d="M 409.5,70.5 C 409.027,71.9063 408.027,72.573 406.5,72.5C 406.973,71.0937 407.973,70.427 409.5,70.5 Z"/></g>
<g><path style="opacity:1" fill="#010101" d="M 676.5,94.5 C 688.747,94.1782 700.914,94.5115 713,95.5C 713.167,143.668 713.667,191.668 714.5,239.5C 718.853,239.765 723.187,240.265 727.5,241C 728.252,241.671 728.586,242.504 728.5,243.5C 710.83,243.667 693.164,243.5 675.5,243C 676.056,242.617 676.389,242.117 676.5,241.5C 679.096,240.735 681.763,240.401 684.5,240.5C 685.833,240.5 687.167,240.5 688.5,240.5C 688.5,193.167 688.5,145.833 688.5,98.5C 686.833,98.5 685.167,98.5 683.5,98.5C 680.017,99.0841 677.017,98.2508 674.5,96C 675.044,95.2828 675.711,94.7828 676.5,94.5 Z"/></g>
<g><path style="opacity:0.76" fill="#494949" d="M 676.5,94.5 C 688.902,93.1704 701.402,93.1704 714,94.5C 714.5,142.832 714.667,191.166 714.5,239.5C 713.667,191.668 713.167,143.668 713,95.5C 700.914,94.5115 688.747,94.1782 676.5,94.5 Z"/></g>
<g><path style="opacity:0.113" fill="#dbdbdb" d="M 683.5,98.5 C 685.167,98.5 686.833,98.5 688.5,98.5C 688.5,145.833 688.5,193.167 688.5,240.5C 687.167,240.5 685.833,240.5 684.5,240.5C 685.209,239.596 686.209,239.263 687.5,239.5C 687.5,192.833 687.5,146.167 687.5,99.5C 685.901,99.7678 684.568,99.4345 683.5,98.5 Z"/></g>
<g><path style="opacity:0.29" fill="#d3d3d3" d="M 632.5,112.5 C 633.386,111.224 634.386,111.224 635.5,112.5C 635.376,113.107 635.043,113.44 634.5,113.5C 634.158,112.662 633.492,112.328 632.5,112.5 Z"/></g>
<g><path style="opacity:0.867" fill="#898989" d="M 441.5,114.5 C 443.048,114.821 443.715,115.821 443.5,117.5C 442.599,116.71 441.932,115.71 441.5,114.5 Z"/></g>
<g><path style="opacity:0.8" fill="#828282" d="M 443.5,117.5 C 445.027,117.427 446.027,118.094 446.5,119.5C 444.973,119.573 443.973,118.906 443.5,117.5 Z"/></g>
<g><path style="opacity:0.875" fill="#818181" d="M 641.5,134.5 C 642.069,130.671 641.402,127.337 639.5,124.5C 639.811,123.522 640.478,122.855 641.5,122.5C 642.809,126.649 642.809,130.649 641.5,134.5 Z"/></g>
<g><path style="opacity:1" fill="#0f0f0f" d="M 639.5,124.5 C 641.402,127.337 642.069,130.671 641.5,134.5C 641.387,139.518 641.053,144.518 640.5,149.5C 647.841,149.334 655.174,149.5 662.5,150C 666.5,151.333 666.5,152.667 662.5,154C 655.174,154.5 647.841,154.666 640.5,154.5C 640.333,180.502 640.5,206.502 641,232.5C 641.685,235.057 643.185,236.891 645.5,238C 650.919,238.48 656.252,237.98 661.5,236.5C 663.415,236.216 665.081,236.549 666.5,237.5C 664.669,239.776 662.336,241.609 659.5,243C 646.355,247.913 633.355,247.579 620.5,242C 617.533,239.9 615.7,237.066 615,233.5C 614.5,219.171 614.333,204.837 614.5,190.5C 615.495,178.345 615.829,166.011 615.5,153.5C 611.167,153.5 606.833,153.5 602.5,153.5C 601.226,152.811 601.226,151.977 602.5,151C 605.706,149.231 609.039,147.731 612.5,146.5C 614.027,146.573 615.027,145.906 615.5,144.5C 615.842,143.662 616.508,143.328 617.5,143.5C 619.404,143.262 620.738,142.262 621.5,140.5C 624.474,137.862 627.474,135.195 630.5,132.5C 632.5,132.5 633.5,131.5 633.5,129.5C 635.404,129.262 636.738,128.262 637.5,126.5C 637.833,125.5 638.5,124.833 639.5,124.5 Z"/></g>
<g><path style="opacity:0.671" fill="#7f7f7f" d="M 637.5,126.5 C 636.738,128.262 635.404,129.262 633.5,129.5C 634.262,127.738 635.596,126.738 637.5,126.5 Z"/></g>
<g><path style="opacity:0.71" fill="#8a8a8a" d="M 633.5,129.5 C 633.5,131.5 632.5,132.5 630.5,132.5C 631.167,131.167 632.167,130.167 633.5,129.5 Z"/></g>
<g><path style="opacity:0.737" fill="#7a7a7a" d="M 621.5,140.5 C 620.738,142.262 619.404,143.262 617.5,143.5C 618.262,141.738 619.596,140.738 621.5,140.5 Z"/></g>
<g><path style="opacity:0.784" fill="#838383" d="M 615.5,144.5 C 615.027,145.906 614.027,146.573 612.5,146.5C 612.973,145.094 613.973,144.427 615.5,144.5 Z"/></g>
<g><path style="opacity:1" fill="#171717" d="M 83.5,158.5 C 83.427,160.027 84.0937,161.027 85.5,161.5C 88.1141,169.252 85.2807,173.919 77,175.5C 73.8338,174.833 71.0005,173.5 68.5,171.5C 66.0126,166.673 63.3459,162.007 60.5,157.5C 60.5,155.5 59.5,154.5 57.5,154.5C 44.505,149.939 35.6717,154.273 31,167.5C 25.269,184.171 24.1024,201.171 27.5,218.5C 27.1201,220.698 27.7868,222.365 29.5,223.5C 32.8255,234.321 40.1588,240.155 51.5,241C 62.2535,241.917 71.2535,238.417 78.5,230.5C 79.9063,230.027 80.573,229.027 80.5,227.5C 82.6735,223.148 85.3401,219.148 88.5,215.5C 87.9233,228.732 81.2567,237.899 68.5,243C 55.1667,247.667 41.8333,247.667 28.5,243C 23.9305,241.226 19.9305,238.726 16.5,235.5C 16.1667,233.167 14.8333,231.833 12.5,231.5C 10.1128,229.087 7.94615,226.42 6,223.5C 3.12106,218.019 0.954393,212.352 -0.5,206.5C -0.5,200.167 -0.5,193.833 -0.5,187.5C 8.24692,158.435 27.9136,145.269 58.5,148C 68.2932,148.347 76.6265,151.847 83.5,158.5 Z"/></g>
<g><path style="opacity:1" fill="#131313" d="M 255.5,209.5 C 255.5,219.833 255.5,230.167 255.5,240.5C 256.833,240.5 258.167,240.5 259.5,240.5C 262.518,240.335 265.518,240.502 268.5,241C 270.394,242.079 270.727,243.413 269.5,245C 254.487,245.666 239.487,245.5 224.5,244.5C 222.5,243.833 220.5,243.167 218.5,242.5C 218.611,241.883 218.944,241.383 219.5,241C 222.827,240.39 226.161,239.89 229.5,239.5C 229.667,211.831 229.5,184.165 229,156.5C 225.545,155.713 222.045,155.046 218.5,154.5C 218.167,153.833 217.833,153.167 217.5,152.5C 229.741,149.738 242.075,149.071 254.5,150.5C 254.335,154.182 254.501,157.848 255,161.5C 256.039,160.756 256.539,159.756 256.5,158.5C 256.5,157.833 256.833,157.5 257.5,157.5C 258.833,156.833 259.833,155.833 260.5,154.5C 262.578,151.949 265.244,150.116 268.5,149C 274.5,148.333 280.5,148.333 286.5,149C 294.16,152.841 296.66,159.008 294,167.5C 287.63,174.046 281.296,174.046 275,167.5C 274.181,163.38 272.681,159.546 270.5,156C 266.74,154.824 263.907,155.99 262,159.5C 259.806,162.554 258.139,165.888 257,169.5C 256.611,182.842 256.111,196.175 255.5,209.5 Z"/></g>
<g><path style="opacity:1" fill="#121212" d="M 371.5,149.5 C 371.821,151.048 372.821,151.715 374.5,151.5C 377.456,154.092 378.789,157.426 378.5,161.5C 378.639,168.53 375.139,172.196 368,172.5C 360.758,170.716 356.758,166.05 356,158.5C 354.475,155.913 352.308,155.08 349.5,156C 343.476,161.054 340.309,167.554 340,175.5C 339.5,196.831 339.333,218.164 339.5,239.5C 343.835,239.917 348.168,240.417 352.5,241C 354.394,242.079 354.727,243.413 353.5,245C 338.487,245.666 323.487,245.5 308.5,244.5C 306.5,243.833 304.5,243.167 302.5,242.5C 302.611,241.883 302.944,241.383 303.5,241C 306.827,240.39 310.161,239.89 313.5,239.5C 313.667,211.831 313.5,184.165 313,156.5C 309.504,155.797 306.004,155.13 302.5,154.5C 302.167,153.833 301.833,153.167 301.5,152.5C 313.737,149.679 326.071,149.013 338.5,150.5C 338.18,153.898 338.513,157.232 339.5,160.5C 340.919,159.995 341.585,158.995 341.5,157.5C 343.902,153.269 347.569,150.436 352.5,149C 358.915,148.21 365.248,148.376 371.5,149.5 Z"/></g>
<g><path style="opacity:1" fill="#141414" d="M 462.5,161.5 C 462.427,163.027 463.094,164.027 464.5,164.5C 467.527,168.237 469.193,172.57 469.5,177.5C 469.5,180.833 469.5,184.167 469.5,187.5C 449.167,187.5 428.833,187.5 408.5,187.5C 408.5,192.167 408.5,196.833 408.5,201.5C 408.758,212.036 411.258,222.036 416,231.5C 419.499,236.66 424.333,239.827 430.5,241C 436.856,241.594 443.189,241.427 449.5,240.5C 451.698,240.88 453.365,240.213 454.5,238.5C 456.5,237.167 458.5,235.833 460.5,234.5C 462.833,234.167 464.167,232.833 464.5,230.5C 466.533,226.435 468.533,222.435 470.5,218.5C 472.308,219.918 472.975,221.918 472.5,224.5C 467.87,236.946 458.87,244.113 445.5,246C 431.601,248.295 418.601,246.128 406.5,239.5C 405.738,237.738 404.404,236.738 402.5,236.5C 391.76,229.376 385.26,219.376 383,206.5C 380.929,192.79 383.596,180.123 391,168.5C 391.708,167.619 392.542,166.953 393.5,166.5C 394.906,166.027 395.573,165.027 395.5,163.5C 397.122,161.359 399.122,159.692 401.5,158.5C 403.404,158.262 404.738,157.262 405.5,155.5C 420.19,146.889 435.523,145.722 451.5,152C 455.949,154.284 459.616,157.451 462.5,161.5 Z M 447.5,183.5 C 434.788,184.146 422.455,183.48 410.5,181.5C 412.088,173.57 414.588,165.903 418,158.5C 426.063,149.8 434.396,149.466 443,157.5C 444.399,160.363 445.399,163.363 446,166.5C 446.312,172.199 446.812,177.866 447.5,183.5 Z"/></g>
<g><path style="opacity:1" fill="#0a0a0a" d="M 577.5,154.5 C 577.833,155.5 578.5,156.167 579.5,156.5C 579.427,158.027 580.094,159.027 581.5,159.5C 582.927,161.148 583.76,163.148 584,165.5C 584.5,190.164 584.667,214.831 584.5,239.5C 589.356,239.763 594.023,240.763 598.5,242.5C 598.376,243.107 598.043,243.44 597.5,243.5C 580.134,244.152 563.134,243.486 546.5,241.5C 549.391,240.597 552.391,240.264 555.5,240.5C 556.833,240.5 558.167,240.5 559.5,240.5C 559.831,214.661 559.498,188.995 558.5,163.5C 556.562,157.397 552.396,154.064 546,153.5C 530.264,154.569 521.931,162.902 521,178.5C 520.5,198.831 520.333,219.164 520.5,239.5C 523.839,239.89 527.173,240.39 530.5,241C 532.119,241.236 533.119,242.069 533.5,243.5C 515.992,243.83 498.659,243.497 481.5,242.5C 481.918,241.778 482.584,241.278 483.5,241C 486.482,240.502 489.482,240.335 492.5,240.5C 494.492,212.186 495.159,183.519 494.5,154.5C 492.167,154.5 489.833,154.5 487.5,154.5C 485.585,154.784 483.919,154.451 482.5,153.5C 482.167,152.833 481.833,152.167 481.5,151.5C 493.645,149.977 505.978,149.477 518.5,150C 519.056,150.383 519.389,150.883 519.5,151.5C 519.334,155.514 519.501,159.514 520,163.5C 520.513,162.473 521.013,161.473 521.5,160.5C 523.488,158.184 525.822,156.184 528.5,154.5C 530.027,154.573 531.027,153.906 531.5,152.5C 534.353,151.047 537.353,149.881 540.5,149C 549.833,148.333 559.167,148.333 568.5,149C 572.2,149.843 575.2,151.676 577.5,154.5 Z"/></g>
<g><path style="opacity:0.561" fill="#9c9c9c" d="M 96.5,150.5 C 95.8902,151.391 95.5569,152.391 95.5,153.5C 94.1148,152.053 94.4482,151.053 96.5,150.5 Z"/></g>
<g><path style="opacity:1" fill="#0f0f0f" d="M 157.5,239.5 C 159.027,239.573 160.027,238.906 160.5,237.5C 165.111,233.951 167.944,229.285 169,223.5C 169.5,200.836 169.667,178.169 169.5,155.5C 164.345,156.11 159.678,154.944 155.5,152C 156.328,151.085 157.328,150.419 158.5,150C 170.546,149.188 182.546,149.354 194.5,150.5C 195.333,179.494 195.833,208.494 196,237.5C 196.5,238.667 197.333,239.5 198.5,240C 202.211,240.175 205.878,240.675 209.5,241.5C 209.291,242.086 208.957,242.586 208.5,243C 196.171,243.5 183.838,243.667 171.5,243.5C 171.823,239.774 171.489,236.107 170.5,232.5C 169.893,232.624 169.56,232.957 169.5,233.5C 164.212,240.159 157.212,244.326 148.5,246C 141.42,246.795 134.42,246.628 127.5,245.5C 126.365,243.787 124.698,243.12 122.5,243.5C 120.566,242.89 118.899,241.89 117.5,240.5C 117.027,239.094 116.027,238.427 114.5,238.5C 111.706,236.181 109.872,233.181 109,229.5C 108.5,204.836 108.333,180.169 108.5,155.5C 104.818,155.665 101.152,155.499 97.5,155C 96.5842,154.722 95.9175,154.222 95.5,153.5C 95.5569,152.391 95.8902,151.391 96.5,150.5C 108.326,149.34 120.326,149.174 132.5,150C 133,150.5 133.5,151 134,151.5C 134.333,178.833 134.667,206.167 135,233.5C 135.833,237 138,239.167 141.5,240C 143.847,240.436 146.181,240.936 148.5,241.5C 151.479,240.672 154.479,240.005 157.5,239.5 Z"/></g>
<g><path style="opacity:0.91" fill="#7d7d7d" d="M 371.5,149.5 C 372.71,149.932 373.71,150.599 374.5,151.5C 372.821,151.715 371.821,151.048 371.5,149.5 Z"/></g>
<g><path style="opacity:0.505" fill="#7f7f7f" d="M 726.5,151.5 C 742.992,150.503 759.658,150.17 776.5,150.5C 776.5,151.5 776.5,152.5 776.5,153.5C 775.167,153.5 773.833,153.5 772.5,153.5C 773.263,152.732 774.263,152.232 775.5,152C 759.17,151.5 742.837,151.333 726.5,151.5 Z"/></g>
<g><path style="opacity:0.418" fill="#989898" d="M 835.5,150.5 C 835.5,150.833 835.5,151.167 835.5,151.5C 824.654,151.172 813.987,151.506 803.5,152.5C 802.711,152.217 802.044,151.717 801.5,151C 812.828,150.5 824.162,150.333 835.5,150.5 Z"/></g>
<g><path style="opacity:0.673" fill="#5a5a5a" d="M 254.5,150.5 C 255.167,153.167 255.833,155.833 256.5,158.5C 256.539,159.756 256.039,160.756 255,161.5C 254.501,157.848 254.335,154.182 254.5,150.5 Z"/></g>
<g><path style="opacity:0.414" fill="#8d8d8d" d="M 338.5,150.5 C 339.317,152.969 339.817,155.635 340,158.5C 340.383,157.944 340.883,157.611 341.5,157.5C 341.585,158.995 340.919,159.995 339.5,160.5C 338.513,157.232 338.18,153.898 338.5,150.5 Z"/></g>
<g><path style="opacity:1" fill="#191919" d="M 726.5,151.5 C 742.837,151.333 759.17,151.5 775.5,152C 774.263,152.232 773.263,152.732 772.5,153.5C 770.565,154.15 768.565,154.483 766.5,154.5C 766.343,155.873 766.51,157.207 767,158.5C 775.548,177.008 783.381,195.675 790.5,214.5C 791.167,217.167 791.833,217.167 792.5,214.5C 800.205,195.219 808.205,176.052 816.5,157C 812.061,155.645 807.727,154.145 803.5,152.5C 813.987,151.506 824.654,151.172 835.5,151.5C 835.5,152.167 835.5,152.833 835.5,153.5C 829.056,152.971 823.889,155.305 820,160.5C 805.34,197.481 789.34,233.815 772,269.5C 762.835,282.841 750.669,292.175 735.5,297.5C 728.833,297.5 722.167,297.5 715.5,297.5C 714.5,296.833 713.5,296.167 712.5,295.5C 710.485,294.076 708.152,293.41 705.5,293.5C 698.362,290.262 696.195,284.928 699,277.5C 699.671,276.748 700.504,276.414 701.5,276.5C 704.167,276.167 706.833,275.833 709.5,275.5C 711.484,275.383 713.15,276.05 714.5,277.5C 717.5,281.5 720.5,285.5 723.5,289.5C 725.605,291.468 728.105,292.468 731,292.5C 745.632,289.441 757.132,281.774 765.5,269.5C 767.262,268.738 768.262,267.404 768.5,265.5C 768.328,264.508 768.662,263.842 769.5,263.5C 770.906,263.027 771.573,262.027 771.5,260.5C 771.328,259.508 771.662,258.842 772.5,258.5C 773.906,258.027 774.573,257.027 774.5,255.5C 777.112,249.471 776.946,243.471 774,237.5C 761.822,210.652 749.822,183.652 738,156.5C 736.729,155.117 735.229,154.117 733.5,153.5C 731.167,152.833 728.833,152.167 726.5,151.5 Z"/></g>
<g><path style="opacity:0.031" fill="#c9c9c9" d="M 481.5,151.5 C 481.833,152.167 482.167,152.833 482.5,153.5C 480.576,153.289 480.243,152.623 481.5,151.5 Z"/></g>
<g><path style="opacity:0.333" fill="#a7a7a7" d="M 726.5,151.5 C 728.833,152.167 731.167,152.833 733.5,153.5C 730.753,153.813 728.086,153.48 725.5,152.5C 725.624,151.893 725.957,151.56 726.5,151.5 Z"/></g>
<g><path style="opacity:0.412" fill="#989898" d="M 217.5,152.5 C 217.833,153.167 218.167,153.833 218.5,154.5C 217.325,154.719 216.325,154.386 215.5,153.5C 215.957,152.702 216.624,152.369 217.5,152.5 Z"/></g>
<g><path style="opacity:0.424" fill="#949494" d="M 301.5,152.5 C 301.833,153.167 302.167,153.833 302.5,154.5C 301.325,154.719 300.325,154.386 299.5,153.5C 299.957,152.702 300.624,152.369 301.5,152.5 Z"/></g>
<g><path style="opacity:0.686" fill="#979797" d="M 531.5,152.5 C 531.027,153.906 530.027,154.573 528.5,154.5C 528.973,153.094 529.973,152.427 531.5,152.5 Z"/></g>
<g><path style="opacity:0.816" fill="#868686" d="M 57.5,154.5 C 59.5,154.5 60.5,155.5 60.5,157.5C 59.1667,156.833 58.1667,155.833 57.5,154.5 Z"/></g>
<g><path style="opacity:0.008" fill="#b9b9b9" d="M 577.5,154.5 C 578.833,154.5 579.5,155.167 579.5,156.5C 578.5,156.167 577.833,155.5 577.5,154.5 Z"/></g>
<g><path style="opacity:0.069" fill="#e2e2e2" d="M 487.5,154.5 C 489.833,154.5 492.167,154.5 494.5,154.5C 495.159,183.519 494.492,212.186 492.5,240.5C 493.491,212.241 493.825,183.907 493.5,155.5C 491.265,155.795 489.265,155.461 487.5,154.5 Z"/></g>
<g><path style="opacity:0.07" fill="#e1e1e1" d="M 519.5,151.5 C 520.167,154.5 520.833,157.5 521.5,160.5C 521.013,161.473 520.513,162.473 520,163.5C 519.501,159.514 519.334,155.514 519.5,151.5 Z"/></g>
<g><path style="opacity:0.349" fill="#adadad" d="M 260.5,154.5 C 259.833,155.833 258.833,156.833 257.5,157.5C 257.5,155.5 258.5,154.5 260.5,154.5 Z"/></g>
<g><path style="opacity:0.714" fill="#7c7c7c" d="M 405.5,155.5 C 404.738,157.262 403.404,158.262 401.5,158.5C 402.262,156.738 403.596,155.738 405.5,155.5 Z"/></g>
<g><path style="opacity:0.471" fill="#8f8f8f" d="M 579.5,156.5 C 580.906,156.973 581.573,157.973 581.5,159.5C 580.094,159.027 579.427,158.027 579.5,156.5 Z"/></g>
<g><path style="opacity:0.431" fill="#9c9c9c" d="M 83.5,158.5 C 84.9063,158.973 85.573,159.973 85.5,161.5C 84.0937,161.027 83.427,160.027 83.5,158.5 Z"/></g>
<g><path style="opacity:0.404" fill="#9a9a9a" d="M 462.5,161.5 C 463.906,161.973 464.573,162.973 464.5,164.5C 463.094,164.027 462.427,163.027 462.5,161.5 Z"/></g>
<g><path style="opacity:0.675" fill="#9b9b9b" d="M 395.5,163.5 C 395.573,165.027 394.906,166.027 393.5,166.5C 393.427,164.973 394.094,163.973 395.5,163.5 Z"/></g>
<g><path style="opacity:0.074" fill="#e1e1e1" d="M 558.5,163.5 C 559.498,188.995 559.831,214.661 559.5,240.5C 558.167,240.5 556.833,240.5 555.5,240.5C 556.209,239.596 557.209,239.263 558.5,239.5C 558.5,214.167 558.5,188.833 558.5,163.5 Z"/></g>
<g><path style="opacity:0.498" fill="#929292" d="M 602.5,153.5 C 606.833,153.5 611.167,153.5 615.5,153.5C 615.829,166.011 615.495,178.345 614.5,190.5C 614.5,178.5 614.5,166.5 614.5,154.5C 610.298,154.817 606.298,154.483 602.5,153.5 Z"/></g>
<g><path style="opacity:0.12" fill="#dcdcdc" d="M 410.5,181.5 C 422.455,183.48 434.788,184.146 447.5,183.5C 435.011,184.495 422.344,184.829 409.5,184.5C 409.263,183.209 409.596,182.209 410.5,181.5 Z"/></g>
<g><path style="opacity:0.415" fill="#979797" d="M 469.5,177.5 C 470.482,180.962 470.815,184.629 470.5,188.5C 450.167,188.5 429.833,188.5 409.5,188.5C 409.818,193.032 409.485,197.366 408.5,201.5C 408.5,196.833 408.5,192.167 408.5,187.5C 428.833,187.5 449.167,187.5 469.5,187.5C 469.5,184.167 469.5,180.833 469.5,177.5 Z"/></g>
<g><path style="opacity:0.074" fill="#e7e7e7" d="M 255.5,209.5 C 256.494,219.319 256.827,229.319 256.5,239.5C 257.791,239.263 258.791,239.596 259.5,240.5C 258.167,240.5 256.833,240.5 255.5,240.5C 255.5,230.167 255.5,219.833 255.5,209.5 Z"/></g>
<g><path style="opacity:0.361" fill="#b1b1b1" d="M 790.5,214.5 C 791.167,214.5 791.833,214.5 792.5,214.5C 791.833,217.167 791.167,217.167 790.5,214.5 Z"/></g>
<g><path style="opacity:0.49" fill="#a8a8a8" d="M 470.5,218.5 C 471.209,217.596 472.209,217.263 473.5,217.5C 473.802,220.059 473.468,222.393 472.5,224.5C 472.975,221.918 472.308,219.918 470.5,218.5 Z"/></g>
<g><path style="opacity:0.894" fill="#7d7d7d" d="M 27.5,218.5 C 28.5375,219.93 29.2041,221.597 29.5,223.5C 27.7868,222.365 27.1201,220.698 27.5,218.5 Z"/></g>
<g><path style="opacity:0.459" fill="#989898" d="M 80.5,227.5 C 80.573,229.027 79.9063,230.027 78.5,230.5C 78.427,228.973 79.0937,227.973 80.5,227.5 Z"/></g>
<g><path style="opacity:0.914" fill="#818181" d="M 12.5,231.5 C 14.8333,231.833 16.1667,233.167 16.5,235.5C 14.8333,234.5 13.5,233.167 12.5,231.5 Z"/></g>
<g><path style="opacity:0.624" fill="#8b8b8b" d="M 464.5,230.5 C 464.167,232.833 462.833,234.167 460.5,234.5C 461.5,232.833 462.833,231.5 464.5,230.5 Z"/></g>
<g><path style="opacity:0.327" fill="#a5a5a5" d="M 169.5,233.5 C 169.56,232.957 169.893,232.624 170.5,232.5C 171.489,236.107 171.823,239.774 171.5,243.5C 170.833,240.167 170.167,236.833 169.5,233.5 Z"/></g>
<g><path style="opacity:0.867" fill="#7f7f7f" d="M 666.5,237.5 C 665.081,236.549 663.415,236.216 661.5,236.5C 663.343,235.717 665.343,235.05 667.5,234.5C 668.665,235.86 668.332,236.86 666.5,237.5 Z"/></g>
<g><path style="opacity:0.812" fill="#878787" d="M 402.5,236.5 C 404.404,236.738 405.738,237.738 406.5,239.5C 404.596,239.262 403.262,238.262 402.5,236.5 Z"/></g>
<g><path style="opacity:0.784" fill="#7d7d7d" d="M 160.5,237.5 C 160.027,238.906 159.027,239.573 157.5,239.5C 157.973,238.094 158.973,237.427 160.5,237.5 Z"/></g>
<g><path style="opacity:0.455" fill="#989898" d="M 114.5,238.5 C 116.027,238.427 117.027,239.094 117.5,240.5C 115.973,240.573 114.973,239.906 114.5,238.5 Z"/></g>
<g><path style="opacity:0.875" fill="#818181" d="M 454.5,238.5 C 453.365,240.213 451.698,240.88 449.5,240.5C 450.93,239.463 452.597,238.796 454.5,238.5 Z"/></g>
<g><path style="opacity:0.925" fill="#797979" d="M 122.5,243.5 C 124.698,243.12 126.365,243.787 127.5,245.5C 125.597,245.204 123.93,244.537 122.5,243.5 Z"/></g>
<g><path style="opacity:0.643" fill="#797979" d="M 218.5,242.5 C 220.5,243.167 222.5,243.833 224.5,244.5C 221.813,244.664 219.146,244.497 216.5,244C 217.044,243.283 217.711,242.783 218.5,242.5 Z"/></g>
<g><path style="opacity:0.675" fill="#767676" d="M 302.5,242.5 C 304.5,243.167 306.5,243.833 308.5,244.5C 305.753,244.813 303.086,244.48 300.5,243.5C 300.957,242.702 301.624,242.369 302.5,242.5 Z"/></g>
<g><path style="opacity:0.415" fill="#979797" d="M 481.5,242.5 C 498.659,243.497 515.992,243.83 533.5,243.5C 515.671,244.662 497.671,244.829 479.5,244C 480.044,243.283 480.711,242.783 481.5,242.5 Z"/></g>
<g><path style="opacity:0.332" fill="#ababab" d="M 546.5,241.5 C 563.134,243.486 580.134,244.152 597.5,243.5C 580.341,244.497 563.008,244.83 545.5,244.5C 545.263,243.209 545.596,242.209 546.5,241.5 Z"/></g>
<g><path style="opacity:0.158" fill="#d1d1d1" d="M 676.5,241.5 C 676.389,242.117 676.056,242.617 675.5,243C 693.164,243.5 710.83,243.667 728.5,243.5C 710.674,244.497 692.674,244.83 674.5,244.5C 674.285,242.821 674.952,241.821 676.5,241.5 Z"/></g>
<g><path style="opacity:0.439" fill="#9b9b9b" d="M 774.5,255.5 C 774.573,257.027 773.906,258.027 772.5,258.5C 772.427,256.973 773.094,255.973 774.5,255.5 Z"/></g>
<g><path style="opacity:0.447" fill="#929292" d="M 771.5,260.5 C 771.573,262.027 770.906,263.027 769.5,263.5C 769.427,261.973 770.094,260.973 771.5,260.5 Z"/></g>
<g><path style="opacity:0.8" fill="#8c8c8c" d="M 768.5,265.5 C 768.262,267.404 767.262,268.738 765.5,269.5C 765.738,267.596 766.738,266.262 768.5,265.5 Z"/></g>
<g><path style="opacity:0.984" fill="#6d6d6d" d="M 709.5,275.5 C 706.833,275.833 704.167,276.167 701.5,276.5C 704.04,274.587 706.707,274.254 709.5,275.5 Z"/></g>
<g><path style="opacity:0.945" fill="#636363" d="M 705.5,293.5 C 708.152,293.41 710.485,294.076 712.5,295.5C 709.848,295.59 707.515,294.924 705.5,293.5 Z"/></g>
</svg>
