<?xml version="1.0" standalone="no"?>
<!DOCTYPE svg PUBLIC "-//W3C//DTD SVG 20010904//EN"
 "http://www.w3.org/TR/2001/REC-SVG-20010904/DTD/svg10.dtd">
<svg version="1.0" xmlns="http://www.w3.org/2000/svg"
 width="500.000000pt" height="500.000000pt" viewBox="0 0 500.000000 500.000000"
 preserveAspectRatio="xMidYMid meet">

<g transform="translate(0.000000,500.000000) scale(0.100000,-0.100000)"
fill="#000000" stroke="none">
<path d="M2228 4855 c-457 -55 -897 -245 -1243 -536 -98 -82 -272 -260 -347
-354 -262 -330 -442 -763 -492 -1180 -20 -167 -20 -423 0 -590 18 -151 76
-388 129 -531 303 -810 1023 -1394 1880 -1525 183 -28 492 -31 670 -5 691 98
1280 468 1667 1046 85 127 178 307 232 445 244 634 212 1322 -90 1929 -143
288 -344 545 -579 743 -345 291 -763 482 -1200 549 -143 22 -482 26 -627 9z
m1364 -1638 l-4 -66 59 -3 c44 -2 58 -7 58 -18 0 -11 -14 -16 -58 -18 l-57 -3
2 -212 3 -212 40 0 c22 1 51 3 65 5 42 8 30 -23 -20 -48 -38 -20 -56 -23 -113
-19 -76 5 -117 27 -128 68 -4 13 -5 87 -2 164 3 78 3 166 -1 197 -7 52 -10 57
-33 60 -42 5 -37 24 12 49 26 13 72 47 103 76 31 28 62 51 67 49 6 -2 9 -31 7
-69z m-867 -68 c24 -6 55 -24 72 -41 l28 -29 5 -202 5 -202 39 3 c47 4 45 -15
-5 -40 -60 -31 -152 -16 -177 27 -7 14 -16 12 -66 -15 -126 -66 -250 -12 -250
107 0 74 20 94 158 162 128 62 146 80 146 140 0 45 -20 63 -65 59 -34 -3 -44
-9 -68 -46 -37 -55 -59 -67 -95 -50 -19 9 -28 22 -30 43 -4 39 28 71 83 84 56
13 168 13 220 0z m607 -19 c36 -45 12 -110 -41 -110 -34 0 -45 8 -65 48 -9 17
-21 32 -26 32 -6 0 -19 -15 -30 -32 -18 -30 -20 -51 -20 -215 0 -174 1 -183
19 -183 30 0 51 -11 51 -26 0 -12 -25 -14 -142 -12 -119 3 -143 5 -143 18 0 9
11 16 28 18 l27 3 -2 217 -3 217 -30 5 c-18 3 -31 12 -33 23 -3 15 7 17 107
17 92 0 111 -3 111 -15 0 -19 3 -19 42 6 44 27 123 22 150 -11z m820 -342 c1
-2 5 -176 8 -388 l5 -385 30 -5 c17 -3 30 -10 30 -15 0 -6 -59 -11 -149 -13
-130 -2 -147 -1 -137 12 7 8 22 16 34 18 l22 3 3 325 c3 373 1 407 -31 412
-12 2 -23 11 -25 21 -3 15 7 17 102 17 58 0 107 -1 108 -2z m-373 -225 l-4
-68 55 -3 c98 -6 92 -42 -7 -42 l-53 0 0 -203 c0 -145 3 -206 12 -215 15 -15
52 -15 95 0 60 22 55 -21 -6 -45 -89 -36 -189 -29 -231 15 -19 20 -20 35 -20
234 l0 213 -32 3 c-48 5 -45 25 8 49 26 13 72 46 103 75 76 72 84 71 80 -13z
m-3031 -85 c46 -22 76 -57 70 -84 -2 -9 -16 -26 -31 -38 -26 -19 -30 -19 -54
-6 -14 8 -31 24 -37 35 -36 65 -47 75 -85 75 -46 0 -74 -26 -96 -90 -24 -67
-29 -150 -15 -225 15 -81 47 -122 103 -135 72 -16 129 16 193 105 26 35 39 29
29 -15 -9 -41 -49 -86 -99 -112 -60 -31 -174 -31 -238 0 -54 27 -102 78 -129
136 -23 51 -25 147 -4 207 19 52 86 125 135 146 79 34 186 35 258 1z m310 10
c9 -9 12 -74 12 -229 0 -245 1 -249 70 -249 28 0 46 7 69 29 l31 29 0 191 0
191 -22 0 c-31 0 -56 17 -43 28 6 5 53 13 107 16 74 6 98 4 105 -6 4 -7 10
-116 13 -243 l5 -230 29 -5 c17 -3 30 -9 30 -15 1 -6 -43 -11 -106 -13 -102
-3 -108 -2 -108 17 0 19 -2 19 -42 -4 -86 -47 -188 -41 -251 15 l-32 28 -5
204 -5 203 -30 5 c-50 9 -38 34 20 41 88 10 141 9 153 -3z m650 -5 c20 -12 25
-12 44 2 14 9 44 15 75 15 65 0 93 -23 93 -74 0 -44 -23 -68 -64 -64 -24 2
-35 12 -53 43 -12 22 -28 40 -35 40 -7 0 -21 -16 -31 -35 -15 -30 -17 -60 -15
-215 l3 -180 25 -3 c30 -5 52 -21 44 -33 -3 -5 -56 -9 -118 -9 -163 0 -216 14
-146 39 l30 10 -2 213 c-3 204 -4 213 -23 216 -65 10 -53 30 26 42 81 11 121
9 147 -7z m443 1 c16 -14 20 -14 48 0 16 9 51 16 76 16 79 0 124 -71 75 -120
-36 -36 -89 -22 -110 30 -15 37 -34 38 -57 3 -16 -23 -18 -52 -18 -212 l0
-185 33 -7 c39 -8 46 -14 37 -28 -4 -7 -59 -11 -151 -11 -117 0 -144 3 -144
14 0 8 14 19 30 25 l30 10 0 215 0 216 -22 0 c-32 0 -55 17 -43 29 9 9 37 12
164 19 20 1 42 -5 52 -14z m620 -19 c49 -35 78 -85 82 -141 l2 -39 -164 -3
-164 -3 5 -77 c3 -42 13 -96 23 -120 45 -110 210 -106 274 8 23 41 41 45 41 8
0 -37 -39 -86 -88 -110 -36 -17 -64 -22 -122 -22 -123 0 -206 48 -257 149 -31
59 -35 158 -10 216 21 51 82 116 136 145 39 20 58 24 123 22 67 -3 82 -7 119
-33z m348 5 c13 -20 13 -20 44 2 24 17 49 23 114 26 93 5 132 -6 163 -46 18
-23 20 -41 20 -214 0 -195 6 -228 39 -228 10 0 24 -6 30 -14 10 -11 8 -15 -6
-19 -31 -7 -241 -9 -262 -2 -31 9 -26 23 12 33 l32 8 5 165 c7 214 2 250 -30
266 -36 17 -99 1 -127 -32 -22 -25 -23 -34 -23 -214 l0 -188 30 -6 c44 -9 37
-23 -16 -31 -69 -9 -217 -7 -234 4 -17 11 -14 14 25 27 l30 10 0 214 0 214
-30 5 c-18 3 -30 11 -30 20 0 11 17 17 65 21 92 9 133 3 149 -21z m1361 1 c0
-5 -9 -13 -20 -16 -11 -3 -20 -11 -20 -16 0 -16 112 -279 119 -279 7 1 111
259 111 276 0 7 -11 15 -25 18 -52 13 -23 26 60 26 87 0 111 -13 53 -28 -32
-8 -37 -17 -155 -291 -67 -156 -135 -302 -151 -325 -42 -58 -124 -123 -174
-137 -58 -15 -154 -6 -187 19 -14 10 -30 31 -36 47 -8 23 -6 30 14 46 36 29
60 23 104 -26 46 -51 75 -57 135 -26 61 31 142 131 157 194 7 25 -15 82 -137
358 -54 124 -63 137 -89 143 -16 3 -29 10 -29 16 0 6 49 10 135 10 77 0 135
-4 135 -9z"/>
<path d="M2609 2916 c-62 -41 -72 -55 -93 -120 -10 -30 13 -95 39 -112 20 -13
30 -14 60 -4 58 19 66 41 63 169 l-3 111 -66 -44z"/>
<path d="M2593 2455 c-19 -13 -63 -108 -63 -135 0 -6 41 -10 96 -10 l96 0 -4
60 c-3 39 -11 66 -23 80 -22 24 -71 26 -102 5z"/>
</g>
</svg>
